<?xml version="1.0"?><mxGraphModel><root><mxCell id="0" /><mxCell id="1" parent="0" /><mxCell id="edge1" style="rounded=1;html=1;exitX=0.715;exitY=0;entryX=0.256;entryY=1;jettySize=auto;curved=0;endArrow=block;dashed=0;endFill=1;" parent="1" edge="1" source="node2" target="node1"><mxGeometry as="geometry" relative="1" /></mxCell><mxCell id="edge2" style="rounded=1;html=1;exitX=0.31;exitY=0;entryX=0.746;entryY=1;jettySize=auto;curved=0;endArrow=block;dashed=0;endFill=1;" parent="1" edge="1" source="node3" target="node1"><mxGeometry as="geometry" relative="1" /></mxCell><mxCell id="edge3" style="rounded=1;html=1;exitX=0.948;exitY=0;entryX=0.0607;entryY=1;jettySize=auto;curved=0;endArrow=block;dashed=0;endFill=1;" parent="1" edge="1" source="node4" target="node5"><mxGeometry as="geometry" relative="1"><Array as="points"><mxPoint x="222.21" y="2225.0699999999997" /><mxPoint x="237.07" y="2173.7999999999997" /><mxPoint x="250.71" y="2132.42" /></Array></mxGeometry></mxCell><mxCell id="edge6" style="rounded=1;html=1;exitX=0.5;exitY=0;entryX=0.5;entryY=1;jettySize=auto;curved=0;endArrow=block;dashed=0;endFill=1;" parent="1" edge="1" source="node5" target="node9"><mxGeometry as="geometry" relative="1" /></mxCell><mxCell id="edge4" style="rounded=1;html=1;exitX=0.5;exitY=0;entryX=0.5;entryY=1;jettySize=auto;curved=0;endArrow=block;dashed=0;endFill=1;" parent="1" edge="1" source="node6" target="node5"><mxGeometry as="geometry" relative="1" /></mxCell><mxCell id="edge5" style="rounded=1;html=1;exitX=0.5;exitY=0;entryX=0.5;entryY=1;jettySize=auto;curved=0;endArrow=block;dashed=0;endFill=1;" parent="1" edge="1" source="node7" target="node8"><mxGeometry as="geometry" relative="1" /></mxCell><mxCell id="edge8" style="rounded=1;html=1;exitX=0.5;exitY=0;entryX=0.5;entryY=1;jettySize=auto;curved=0;endArrow=block;dashed=0;endFill=1;" parent="1" edge="1" source="node8" target="node2"><mxGeometry as="geometry" relative="1" /></mxCell><mxCell id="edge7" style="rounded=1;html=1;exitX=0.271;exitY=0;entryX=0.995;entryY=1;jettySize=auto;curved=0;endArrow=block;dashed=0;endFill=1;" parent="1" edge="1" source="node9" target="node8"><mxGeometry as="geometry" relative="1" /></mxCell><mxCell id="edge9" style="rounded=1;html=1;exitX=0.279;exitY=0;entryX=0.931;entryY=1;jettySize=auto;curved=0;endArrow=block;dashed=0;endFill=1;" parent="1" edge="1" source="node10" target="node5"><mxGeometry as="geometry" relative="1"><Array as="points"><mxPoint x="472.54" y="2342.21" /><mxPoint x="417.07" y="2173.7999999999997" /><mxPoint x="401.92" y="2131.8999999999996" /></Array></mxGeometry></mxCell><mxCell id="node1" value="&lt;p style='margin:0px;text-align:center;margin-top:4px;;font-size:10.0px;font-family:Times New Roman,serif;color:#000000;'&gt;__init__.Remap&lt;/p&gt;&lt;hr size='1'/&gt;&lt;p style='margin:0px;text-align:start;margin-left:4px;;font-size:10.0px;font-family:Times New Roman,serif;color:#000000;'&gt;axis_mode : str&lt;br/&gt;axis_scaling : float&lt;br/&gt;default_button_activation : tuple&lt;br/&gt;functor&lt;br/&gt;input_type&lt;br/&gt;input_types : list&lt;br/&gt;name : str&lt;br/&gt;tag : str&lt;br/&gt;vjoy_device_id : NoneType&lt;br/&gt;vjoy_input_id : NoneType&lt;br/&gt;widget&lt;/p&gt;&lt;hr size='1'/&gt;&lt;p style='margin:0px;text-align:start;margin-left:4px;;font-size:10.0px;font-family:Times New Roman,serif;color:#000000;'&gt;__init__(parent)&lt;br/&gt;_generate_xml()&lt;br/&gt;_is_valid()&lt;br/&gt;_parse_xml(node)&lt;br/&gt;icon()&lt;br/&gt;requires_virtual_button()&lt;/p&gt;" style="verticalAlign=top;align=left;overflow=fill;html=1;rounded=0;shadow=0;comic=0;labelBackgroundColor=none;strokeColor=black;strokeWidth=1;fillColor=#ffffff;" parent="1" vertex="1"><mxGeometry x="154.71" y="4.5" width="198.73" height="326.39999999999964" as="geometry" /></mxCell><mxCell id="node2" value="&lt;p style='margin:0px;text-align:center;margin-top:4px;;font-size:10.0px;font-family:Times New Roman,serif;color:#000000;'&gt;__init__.RemapFunctor&lt;/p&gt;&lt;hr size='1'/&gt;&lt;p style='margin:0px;text-align:start;margin-left:4px;;font-size:10.0px;font-family:Times New Roman,serif;color:#000000;'&gt;axis_delta_value : float&lt;br/&gt;axis_mode&lt;br/&gt;axis_scaling&lt;br/&gt;axis_value : float&lt;br/&gt;input_type&lt;br/&gt;needs_auto_release : bool&lt;br/&gt;should_stop_thread : bool&lt;br/&gt;thread : NoneType&lt;br/&gt;thread_last_update&lt;br/&gt;thread_running : bool&lt;br/&gt;vjoy_device_id&lt;br/&gt;vjoy_input_id&lt;/p&gt;&lt;hr size='1'/&gt;&lt;p style='margin:0px;text-align:start;margin-left:4px;;font-size:10.0px;font-family:Times New Roman,serif;color:#000000;'&gt;__init__(action)&lt;br/&gt;_check_for_auto_release(action)&lt;br/&gt;process_event(event, value)&lt;br/&gt;relative_axis_thread()&lt;/p&gt;" style="verticalAlign=top;align=left;overflow=fill;html=1;rounded=0;shadow=0;comic=0;labelBackgroundColor=none;strokeColor=black;strokeWidth=1;fillColor=#ffffff;" parent="1" vertex="1"><mxGeometry x="51.34" y="384.6999999999998" width="199.46" height="309.5999999999999" as="geometry" /></mxCell><mxCell id="node3" value="&lt;p style='margin:0px;text-align:center;margin-top:4px;;font-size:10.0px;font-family:Times New Roman,serif;color:#000000;'&gt;__init__.RemapWidget&lt;/p&gt;&lt;hr size='1'/&gt;&lt;p style='margin:0px;text-align:start;margin-left:4px;;font-size:10.0px;font-family:Times New Roman,serif;color:#000000;'&gt;absolute_checkbox&lt;br/&gt;name_to_type_map : dict&lt;br/&gt;relative_checkbox&lt;br/&gt;relative_scaling&lt;br/&gt;remap_type_layout&lt;br/&gt;remap_type_widget&lt;br/&gt;type_to_name_map : dict&lt;br/&gt;vjoy_selector&lt;/p&gt;&lt;hr size='1'/&gt;&lt;p style='margin:0px;text-align:start;margin-left:4px;;font-size:10.0px;font-family:Times New Roman,serif;color:#000000;'&gt;__init__(action_data, parent)&lt;br/&gt;_create_ui()&lt;br/&gt;_populate_ui()&lt;br/&gt;save_changes()&lt;/p&gt;" style="verticalAlign=top;align=left;overflow=fill;html=1;rounded=0;shadow=0;comic=0;labelBackgroundColor=none;strokeColor=black;strokeWidth=1;fillColor=#ffffff;" parent="1" vertex="1"><mxGeometry x="268.82" y="418.2999999999997" width="178.5" height="242.4000000000001" as="geometry" /></mxCell><mxCell id="node4" value="&lt;p style='margin:0px;text-align:center;margin-top:4px;;font-size:10.0px;font-family:Times New Roman,serif;color:#000000;'&gt;_thread.RLock&lt;/p&gt;&lt;hr size='1'/&gt;&lt;p style='margin:0px;text-align:start;margin-left:4px;;font-size:10.0px;font-family:Times New Roman,serif;color:#000000;'&gt;__delattr__()&lt;br/&gt;__dir__()&lt;br/&gt;__enter__()&lt;br/&gt;__eq__()&lt;br/&gt;__exit__()&lt;br/&gt;__format__()&lt;br/&gt;__ge__()&lt;br/&gt;__getattribute__()&lt;br/&gt;__gt__()&lt;br/&gt;__hash__()&lt;br/&gt;__init__()&lt;br/&gt;__le__()&lt;br/&gt;__lt__()&lt;br/&gt;__ne__()&lt;br/&gt;__reduce__()&lt;br/&gt;__reduce_ex__()&lt;br/&gt;__repr__()&lt;br/&gt;__setattr__()&lt;br/&gt;__sizeof__()&lt;br/&gt;__str__()&lt;br/&gt;_acquire_restore()&lt;br/&gt;_is_owned()&lt;br/&gt;_release_save()&lt;br/&gt;acquire()&lt;br/&gt;release()&lt;/p&gt;" style="verticalAlign=top;align=left;overflow=fill;html=1;rounded=0;shadow=0;comic=0;labelBackgroundColor=none;strokeColor=black;strokeWidth=1;fillColor=#ffffff;" parent="1" vertex="1"><mxGeometry x="109.77" y="2225.1" width="118.61" height="476.7999999999997" as="geometry" /></mxCell><mxCell id="node5" value="&lt;p style='margin:0px;text-align:center;margin-top:4px;;font-size:10.0px;font-family:Times New Roman,serif;color:#000000;'&gt;threading.Condition&lt;/p&gt;&lt;hr size='1'/&gt;&lt;p style='margin:0px;text-align:start;margin-left:4px;;font-size:10.0px;font-family:Times New Roman,serif;color:#000000;'&gt;_acquire_restore&lt;br/&gt;_is_owned&lt;br/&gt;_lock : NoneType&lt;br/&gt;_release_save&lt;br/&gt;_waiters&lt;br/&gt;acquire&lt;br/&gt;notifyAll&lt;br/&gt;release&lt;/p&gt;&lt;hr size='1'/&gt;&lt;p style='margin:0px;text-align:start;margin-left:4px;;font-size:10.0px;font-family:Times New Roman,serif;color:#000000;'&gt;__enter__()&lt;br/&gt;__exit__()&lt;br/&gt;__init__(lock)&lt;br/&gt;__repr__()&lt;br/&gt;_acquire_restore(x)&lt;br/&gt;_is_owned()&lt;br/&gt;_release_save()&lt;br/&gt;notify(n)&lt;br/&gt;notify_all()&lt;br/&gt;wait(timeout)&lt;br/&gt;wait_for(predicate, timeout)&lt;/p&gt;" style="verticalAlign=top;align=left;overflow=fill;html=1;rounded=0;shadow=0;comic=0;labelBackgroundColor=none;strokeColor=black;strokeWidth=1;fillColor=#ffffff;" parent="1" vertex="1"><mxGeometry x="240.16" y="1760.4999999999998" width="173.82000000000002" height="360.0000000000002" as="geometry" /></mxCell><mxCell id="node9" value="&lt;p style='margin:0px;text-align:center;margin-top:4px;;font-size:10.0px;font-family:Times New Roman,serif;color:#000000;'&gt;threading.Event&lt;/p&gt;&lt;hr size='1'/&gt;&lt;p style='margin:0px;text-align:start;margin-left:4px;;font-size:10.0px;font-family:Times New Roman,serif;color:#000000;'&gt;_cond&lt;br/&gt;_flag : bool&lt;br/&gt;isSet&lt;/p&gt;&lt;hr size='1'/&gt;&lt;p style='margin:0px;text-align:start;margin-left:4px;;font-size:10.0px;font-family:Times New Roman,serif;color:#000000;'&gt;__init__()&lt;br/&gt;_reset_internal_locks()&lt;br/&gt;clear()&lt;br/&gt;is_set()&lt;br/&gt;set()&lt;br/&gt;wait(timeout)&lt;/p&gt;" style="verticalAlign=top;align=left;overflow=fill;html=1;rounded=0;shadow=0;comic=0;labelBackgroundColor=none;strokeColor=black;strokeWidth=1;fillColor=#ffffff;" parent="1" vertex="1"><mxGeometry x="254.54" y="1514.6999999999998" width="145.06000000000003" height="192.0" as="geometry" /></mxCell><mxCell id="node6" value="&lt;p style='margin:0px;text-align:center;margin-top:4px;;font-size:10.0px;font-family:Times New Roman,serif;color:#000000;'&gt;collections.deque&lt;/p&gt;&lt;hr size='1'/&gt;&lt;p style='margin:0px;text-align:start;margin-left:4px;;font-size:10.0px;font-family:Times New Roman,serif;color:#000000;'&gt;iterable : list&lt;br/&gt;maxlen : int&lt;/p&gt;&lt;hr size='1'/&gt;&lt;p style='margin:0px;text-align:start;margin-left:4px;;font-size:10.0px;font-family:Times New Roman,serif;color:#000000;'&gt;__add__(other)&lt;br/&gt;__bool__()&lt;br/&gt;__contains__(o)&lt;br/&gt;__copy__()&lt;br/&gt;__delitem__(index)&lt;br/&gt;__getitem__(index)&lt;br/&gt;__iadd__(other)&lt;br/&gt;__imul__(other)&lt;br/&gt;__init__(iterable, maxlen)&lt;br/&gt;__iter__()&lt;br/&gt;__len__()&lt;br/&gt;__mul__(other)&lt;br/&gt;__nonzero__()&lt;br/&gt;__reversed__()&lt;br/&gt;__rmul__(other)&lt;br/&gt;__setitem__(index, value)&lt;br/&gt;append(x)&lt;br/&gt;appendleft(x)&lt;br/&gt;clear()&lt;br/&gt;copy()&lt;br/&gt;count(x)&lt;br/&gt;extend(iterable)&lt;br/&gt;extendleft(iterable)&lt;br/&gt;index(x, start, end)&lt;br/&gt;insert(x, i)&lt;br/&gt;pop()&lt;br/&gt;popleft()&lt;br/&gt;remove(value)&lt;br/&gt;reverse()&lt;br/&gt;rotate(n)&lt;/p&gt;" style="verticalAlign=top;align=left;overflow=fill;html=1;rounded=0;shadow=0;comic=0;labelBackgroundColor=none;strokeColor=black;strokeWidth=1;fillColor=#ffffff;" parent="1" vertex="1"><mxGeometry x="245.98" y="2174.2999999999997" width="162.18000000000004" height="578.4000000000001" as="geometry" /></mxCell><mxCell id="node7" value="&lt;p style='margin:0px;text-align:center;margin-top:4px;;font-size:10.0px;font-family:Times New Roman,serif;color:#000000;'&gt;colorama.ansitowin32.StreamWrapper&lt;/p&gt;&lt;hr size='1'/&gt;&lt;p style='margin:0px;text-align:start;margin-left:4px;;font-size:10.0px;font-family:Times New Roman,serif;color:#000000;'&gt;__convertor&lt;br/&gt;__wrapped&lt;br/&gt;closed&lt;/p&gt;&lt;hr size='1'/&gt;&lt;p style='margin:0px;text-align:start;margin-left:4px;;font-size:10.0px;font-family:Times New Roman,serif;color:#000000;'&gt;__enter__()&lt;br/&gt;__exit__()&lt;br/&gt;__getattr__(name)&lt;br/&gt;__init__(wrapped, converter)&lt;br/&gt;isatty()&lt;br/&gt;write(text)&lt;/p&gt;" style="verticalAlign=top;align=left;overflow=fill;html=1;rounded=0;shadow=0;comic=0;labelBackgroundColor=none;strokeColor=black;strokeWidth=1;fillColor=#ffffff;" parent="1" vertex="1"><mxGeometry x="4.0" y="1514.6999999999998" width="232.15" height="192.0" as="geometry" /></mxCell><mxCell id="node8" value="&lt;p style='margin:0px;text-align:center;margin-top:4px;;font-size:10.0px;font-family:Times New Roman,serif;color:#000000;'&gt;threading.Thread&lt;/p&gt;&lt;hr size='1'/&gt;&lt;p style='margin:0px;text-align:start;margin-left:4px;;font-size:10.0px;font-family:Times New Roman,serif;color:#000000;'&gt;_args : tuple&lt;br/&gt;_daemonic : NoneType&lt;br/&gt;_ident : NoneType&lt;br/&gt;_initialized : bool&lt;br/&gt;_initialized : bool&lt;br/&gt;_invoke_excepthook&lt;br/&gt;_is_stopped : bool&lt;br/&gt;_kwargs : NoneType, dict&lt;br/&gt;_name : str&lt;br/&gt;_native_id : NoneType&lt;br/&gt;_started&lt;br/&gt;_stderr&lt;br/&gt;_target : NoneType&lt;br/&gt;_tstate_lock : NoneType&lt;br/&gt;daemon&lt;br/&gt;daemon&lt;br/&gt;ident&lt;br/&gt;name&lt;br/&gt;name&lt;br/&gt;native_id&lt;/p&gt;&lt;hr size='1'/&gt;&lt;p style='margin:0px;text-align:start;margin-left:4px;;font-size:10.0px;font-family:Times New Roman,serif;color:#000000;'&gt;__init__(group, target, name, args, kwargs)&lt;br/&gt;__repr__()&lt;br/&gt;_bootstrap()&lt;br/&gt;_bootstrap_inner()&lt;br/&gt;_delete()&lt;br/&gt;_reset_internal_locks(is_alive)&lt;br/&gt;_set_ident()&lt;br/&gt;_set_native_id()&lt;br/&gt;_set_tstate_lock()&lt;br/&gt;_stop()&lt;br/&gt;_wait_for_tstate_lock(block, timeout)&lt;br/&gt;getName()&lt;br/&gt;isAlive()&lt;br/&gt;isDaemon()&lt;br/&gt;is_alive()&lt;br/&gt;join(timeout)&lt;br/&gt;run()&lt;br/&gt;setDaemon(daemonic)&lt;br/&gt;setName(name)&lt;br/&gt;start()&lt;/p&gt;" style="verticalAlign=top;align=left;overflow=fill;html=1;rounded=0;shadow=0;comic=0;labelBackgroundColor=none;strokeColor=black;strokeWidth=1;fillColor=#ffffff;" parent="1" vertex="1"><mxGeometry x="21.77" y="748.0999999999999" width="258.6" height="712.8" as="geometry" /></mxCell><mxCell id="node10" value="&lt;p style='margin:0px;text-align:center;margin-top:4px;;font-size:10.0px;font-family:Times New Roman,serif;color:#000000;'&gt;threading._RLock&lt;/p&gt;&lt;hr size='1'/&gt;&lt;p style='margin:0px;text-align:start;margin-left:4px;;font-size:10.0px;font-family:Times New Roman,serif;color:#000000;'&gt;__enter__&lt;br/&gt;_block&lt;br/&gt;_count : int&lt;br/&gt;_owner : NoneType&lt;/p&gt;&lt;hr size='1'/&gt;&lt;p style='margin:0px;text-align:start;margin-left:4px;;font-size:10.0px;font-family:Times New Roman,serif;color:#000000;'&gt;__exit__(t, v, tb)&lt;br/&gt;__init__()&lt;br/&gt;__repr__()&lt;br/&gt;_acquire_restore(state)&lt;br/&gt;_is_owned()&lt;br/&gt;_release_save()&lt;br/&gt;acquire(blocking, timeout)&lt;br/&gt;release()&lt;/p&gt;" style="verticalAlign=top;align=left;overflow=fill;html=1;rounded=0;shadow=0;comic=0;labelBackgroundColor=none;strokeColor=black;strokeWidth=1;fillColor=#ffffff;" parent="1" vertex="1"><mxGeometry x="426.43" y="2342.2999999999997" width="165.28000000000003" height="242.4000000000001" as="geometry" /></mxCell></root></mxGraphModel>